<svg xmlns="http://www.w3.org/2000/svg" xmlns:xlink="http://www.w3.org/1999/xlink" width="90" height="90" viewBox="0 0 90 90"><defs><style>.a{fill:#fff;}.b,.c{fill:#0f4c81;}.b{font-size:25px;font-family:SegoeUI-Bold, Segoe UI;font-weight:700;}.d{filter:url(#a);}</style><filter id="a" x="0" y="0" width="90" height="90" filterUnits="userSpaceOnUse"><feOffset dy="3" input="SourceAlpha"/><feGaussianBlur stdDeviation="3" result="b"/><feFlood flood-opacity="0.161"/><feComposite operator="in" in2="b"/><feComposite in="SourceGraphic"/></filter></defs><g transform="translate(656 -11)"><g class="d" transform="matrix(1, 0, 0, 1, -656, 11)"><circle class="a" cx="36" cy="36" r="36" transform="translate(9 6)"/></g><text class="b" transform="translate(-637 62)"><tspan x="0" y="0">MyT</tspan></text><path class="c" d="M7.382,2.368l3.251,3.251L3.574,12.677.676,13A.609.609,0,0,1,0,12.324l.322-2.9L7.382,2.368Zm5.261-.484L11.116.358a1.219,1.219,0,0,0-1.724,0L7.956,1.793l3.251,3.251,1.436-1.436a1.219,1.219,0,0,0,0-1.724Z" transform="translate(-592.572 22)"/></g></svg>